<svg width="500" height="500" viewBox="0 0 500 500" fill="none" xmlns="http://www.w3.org/2000/svg">
<circle cx="250" cy="250" r="250" fill="url(#paint0_linear_58_27)"/>
<circle cx="250" cy="250" r="250" fill="#FFDF00"/>
<path d="M351.521 221.8C356.056 191.49 332.978 175.196 301.422 164.326L310.218 129.043C311.013 125.853 309.072 122.622 305.882 121.827L292.44 118.477C289.251 117.682 286.02 119.623 285.225 122.813L276.699 157.015C270.129 155.378 263.38 153.833 256.675 152.303L265.271 117.838C266.067 114.648 264.126 111.417 260.936 110.622L247.508 107.273C244.318 106.478 241.088 108.418 240.292 111.607L231.49 146.878C226.051 145.64 220.712 144.415 215.53 143.127L215.559 142.999L186.869 135.835C183.679 135.039 180.446 136.981 179.652 140.172L175.908 155.201C175.103 158.434 177.107 161.698 180.349 162.46C185.741 163.726 192.838 165.436 192.594 165.6C202.717 168.127 204.546 174.825 204.24 180.136L192.58 226.911C193.278 227.089 194.182 227.346 195.178 227.744C194.346 227.538 193.456 227.31 192.537 227.089L176.193 292.615C174.955 295.69 171.816 300.303 164.74 298.552C164.904 298.791 156.962 296.745 151.527 295.323C148.677 294.577 145.707 296.016 144.535 298.718L136.961 316.181C135.498 319.555 137.414 323.436 140.982 324.325L166.69 330.734C172.741 332.25 178.671 333.838 184.508 335.333L175.603 371.088C174.808 374.277 176.749 377.507 179.938 378.302L193.353 381.649C196.543 382.445 199.774 380.504 200.569 377.314L209.373 342.003C216.192 343.853 222.812 345.562 229.29 347.171L220.524 382.289C219.728 385.479 221.669 388.711 224.86 389.506L238.301 392.856C241.49 393.651 244.72 391.71 245.516 388.521L254.418 352.844C297.037 360.909 329.084 357.656 342.573 319.11C353.443 288.073 342.032 270.17 319.609 258.496C335.939 254.73 348.24 243.989 351.521 221.8ZM294.417 301.876C286.693 332.912 234.437 316.134 217.495 311.927L231.219 256.909C248.161 261.137 302.489 269.508 294.417 301.876ZM302.148 221.352C295.1 249.584 251.606 235.24 237.498 231.723L249.941 181.823C264.05 185.339 309.487 191.903 302.148 221.352Z" fill="url(#paint1_linear_58_27)"/>
<path d="M351.521 221.8C356.056 191.49 332.978 175.196 301.422 164.326L310.218 129.043C311.013 125.853 309.072 122.622 305.882 121.827L292.44 118.477C289.251 117.682 286.02 119.623 285.225 122.813L276.699 157.015C270.129 155.378 263.38 153.833 256.675 152.303L265.271 117.838C266.067 114.648 264.126 111.417 260.936 110.622L247.508 107.273C244.318 106.478 241.088 108.418 240.292 111.607L231.49 146.878C226.051 145.64 220.712 144.415 215.53 143.127L215.559 142.999L186.869 135.835C183.679 135.039 180.446 136.981 179.652 140.172L175.908 155.201C175.103 158.434 177.107 161.698 180.349 162.46C185.741 163.726 192.838 165.436 192.594 165.6C202.717 168.127 204.546 174.825 204.24 180.136L192.58 226.911C193.278 227.089 194.182 227.346 195.178 227.744C194.346 227.538 193.456 227.31 192.537 227.089L176.193 292.615C174.955 295.69 171.816 300.303 164.74 298.552C164.904 298.791 156.962 296.745 151.527 295.323C148.677 294.577 145.707 296.016 144.535 298.718L136.961 316.181C135.498 319.555 137.414 323.436 140.982 324.325L166.69 330.734C172.741 332.25 178.671 333.838 184.508 335.333L175.603 371.088C174.808 374.277 176.749 377.507 179.938 378.302L193.353 381.649C196.543 382.445 199.774 380.504 200.569 377.314L209.373 342.003C216.192 343.853 222.812 345.562 229.29 347.171L220.524 382.289C219.728 385.479 221.669 388.711 224.86 389.506L238.301 392.856C241.49 393.651 244.72 391.71 245.516 388.521L254.418 352.844C297.037 360.909 329.084 357.656 342.573 319.11C353.443 288.073 342.032 270.17 319.609 258.496C335.939 254.73 348.24 243.989 351.521 221.8ZM294.417 301.876C286.693 332.912 234.437 316.134 217.495 311.927L231.219 256.909C248.161 261.137 302.489 269.508 294.417 301.876ZM302.148 221.352C295.1 249.584 251.606 235.24 237.498 231.723L249.941 181.823C264.05 185.339 309.487 191.903 302.148 221.352Z" fill="black"/>
<defs>
<linearGradient id="paint0_linear_58_27" x1="125.962" y1="32.6923" x2="370.192" y2="475.962" gradientUnits="userSpaceOnUse">
<stop offset="0.326923" stop-color="#FFF3DF"/>
<stop offset="1" stop-color="#DCCAAA"/>
</linearGradient>
<linearGradient id="paint1_linear_58_27" x1="172.628" y1="105.833" x2="290.897" y2="387.564" gradientUnits="userSpaceOnUse">
<stop stop-color="#FFE6B3"/>
<stop offset="0.606753" stop-color="#B59960"/>
<stop offset="1" stop-color="#E2C07B"/>
</linearGradient>
</defs>
</svg>
