<svg width="32" height="32" viewBox="0 0 32 32" fill="none" xmlns="http://www.w3.org/2000/svg">
<g clip-path="url(#clip0_6064_91)">
<path d="M32 16C32 7.16344 24.8366 0 16 0C7.16344 0 0 7.16344 0 16C0 24.8366 7.16344 32 16 32C24.8366 32 32 24.8366 32 16Z" fill="#2775CA"/>
<path d="M6.66671 12.7333C4.73327 17.8667 7.39999 23.6667 12.6 25.5333C12.8 25.6667 13 25.9333 13 26.1333V27.0667C13 27.2001 13 27.2667 12.9333 27.3333C12.8667 27.6001 12.6 27.7333 12.3333 27.6001C8.59999 26.4001 5.73327 23.5333 4.53327 19.8001C2.53327 13.4667 5.99999 6.73331 12.3333 4.73331C12.4 4.66675 12.5333 4.66675 12.6 4.66675C12.8667 4.73331 13 4.93331 13 5.20003V6.13331C13 6.46675 12.8667 6.66675 12.6 6.80003C9.86665 7.80003 7.66671 9.93328 6.66671 12.7333Z" fill="white"/>
<path d="M19.0667 4.99991C19.1333 4.73319 19.4 4.59991 19.6667 4.73319C23.3333 5.93319 26.2667 8.79996 27.4667 12.6C29.4667 18.9332 26 25.6666 19.6667 27.6666C19.6 27.7332 19.4667 27.7332 19.4 27.7332C19.1333 27.6666 19 27.4666 19 27.2V26.2666C19 25.9332 19.1333 25.7332 19.4 25.6C22.1333 24.6 24.3333 22.4666 25.3333 19.6666C27.2667 14.5332 24.6 8.73316 19.4 6.86663C19.2 6.73319 19 6.46663 19 6.19991V5.26663C19 5.13319 19 5.06663 19.0667 4.99991Z" fill="white"/>
<path d="M16.2 15.0665C19 15.3999 20.4 16.1999 20.4 18.5331C20.4 20.3331 19.0667 21.7331 17.0667 22.0665V23.6665C17 23.9999 16.8 24.1999 16.5333 24.1999H15.5333C15.2 24.1331 15 23.9331 15 23.6665V22.0665C12.8 21.7331 11.7333 20.5331 11.4667 18.8665V18.7999C11.4667 18.5331 11.6667 18.3331 11.9333 18.3331H13.0667C13.2667 18.3331 13.4667 18.4665 13.5333 18.7331C13.7333 19.7331 14.3333 20.4665 16.0667 20.4665C17.3333 20.4665 18.2667 19.7332 18.2667 18.6665C18.2667 17.5999 17.6667 17.1999 15.8 16.8665C13 16.5331 11.6667 15.6665 11.6667 13.4665C11.6667 11.7999 12.9333 10.4665 14.9333 10.1999V8.66652C15 8.33306 15.2 8.13306 15.4667 8.13306H16.4667C16.8 8.19986 17 8.39986 17 8.66652V10.2665C18.5333 10.3999 19.7333 11.5331 20 12.9999V13.0665C20 13.3331 19.8 13.5331 19.5333 13.5331H18.4667C18.2667 13.5331 18.0667 13.3999 18 13.1999C17.6667 12.1999 17 11.7999 15.8 11.7999C14.4667 11.7999 13.8 12.3996 13.8 13.3331C13.8 14.2665 14.2 14.7999 16.2 15.0665Z" fill="white"/>
<path d="M25 14C28.866 14 32 10.866 32 7C32 3.13401 28.866 0 25 0C21.134 0 18 3.13401 18 7C18 10.866 21.134 14 25 14Z" fill="white"/>
<path d="M25 13.0669C28.3505 13.0669 31.0667 10.3508 31.0667 7.00026C31.0667 3.64973 28.3505 0.933594 25 0.933594C21.6495 0.933594 18.9333 3.64973 18.9333 7.00026C18.9333 10.3508 21.6495 13.0669 25 13.0669Z" fill="#020518"/>
<path d="M28.2858 7.8859C28.286 8.2027 28.225 8.5117 28.1039 8.8042C27.9826 9.0971 27.8076 9.3588 27.584 9.5826C27.3597 9.8067 27.0978 9.9814 26.8053 10.1025C26.5133 10.2233 26.2049 10.2848 25.889 10.2848H25.8872H25.8774C25.3714 10.2848 24.8691 10.1199 24.462 9.82C24.0522 9.5182 23.7444 9.0839 23.5912 8.5826C23.5225 8.3565 23.4878 8.1227 23.4882 7.8868V6.11785C23.4884 5.94931 23.554 5.79103 23.6733 5.67176C23.7925 5.55272 23.9508 5.48718 24.1189 5.48695C24.2872 5.4874 24.4455 5.55339 24.5646 5.67221C24.6834 5.79125 24.7491 5.94954 24.7496 6.11763V7.88613C24.7498 8.1898 24.8684 8.4756 25.0838 8.6902C25.2434 8.8494 25.4447 8.9566 25.6659 9.0001C25.8868 9.044 26.114 9.0215 26.3224 8.9352C26.5306 8.849 26.707 8.7045 26.8325 8.517C26.9582 8.3298 27.0249 8.1117 27.0253 7.8859V4.34956C27.0253 4.26641 27.0414 4.18504 27.0733 4.10813C27.1049 4.03144 27.1509 3.96256 27.2099 3.9037C27.2688 3.84507 27.3375 3.79893 27.4144 3.76705C27.568 3.70373 27.743 3.70351 27.8968 3.76705C27.9737 3.79893 28.0424 3.84507 28.1012 3.9037C28.1601 3.96256 28.206 4.03144 28.2379 4.10813C28.2697 4.18504 28.2858 4.26641 28.2858 4.34956V7.8859ZM23.315 5.31329C23.1001 5.52819 22.9815 5.81399 22.9812 6.11763V9.6542C22.9812 9.8225 22.9157 9.9808 22.7964 10.1C22.5583 10.3386 22.1428 10.3386 21.9045 10.1C21.7854 9.9808 21.7199 9.8225 21.7199 9.6542V6.11785C21.7203 5.54291 21.9274 4.9867 22.3031 4.55153C22.6789 4.11638 23.1988 3.83058 23.7675 3.74631C23.8846 3.72893 24.0021 3.72023 24.1191 3.72023C24.571 3.72023 25.0169 3.84819 25.4026 4.0923C25.5847 4.20756 25.749 4.346 25.8921 4.50294C25.8935 4.5016 25.8944 4.50004 25.8957 4.4987L25.8991 4.51141C26.1343 4.77157 26.3117 5.08189 26.4149 5.42208L26.4247 5.4544C26.4874 5.6702 26.519 5.89335 26.5193 6.11763V7.8859C26.5193 8.011 26.4825 8.132 26.4129 8.2359C26.3434 8.3398 26.2457 8.42 26.1302 8.4682C26.0551 8.4994 25.9757 8.5141 25.8957 8.515V8.5161C25.8926 8.5161 25.8897 8.5152 25.8866 8.5152C25.8464 8.5152 25.8061 8.5126 25.766 8.5045C25.7428 8.5001 25.7203 8.4929 25.698 8.4858V8.4827C25.6828 8.4778 25.6672 8.4753 25.6525 8.4691C25.537 8.4209 25.4394 8.3407 25.3698 8.2368C25.3003 8.1327 25.2635 8.0116 25.2635 7.8868V6.28527L25.263 6.1174C25.2626 5.96648 25.2331 5.81956 25.1754 5.6809C25.1174 5.54202 25.0338 5.41762 24.9271 5.31128C24.8203 5.20517 24.6954 5.12246 24.5559 5.06517C24.4165 5.00788 24.2685 4.97711 24.1191 4.97979C23.8155 4.98001 23.5299 5.09861 23.315 5.31329ZM28.4591 3.54568C28.2441 3.331 27.9588 3.21262 27.6554 3.21217C27.352 3.21306 27.0664 3.33166 26.8519 3.54635C26.6379 3.76103 26.5197 4.04616 26.5193 4.34956V4.4773C26.1996 4.01026 25.7488 3.64466 25.2187 3.42797C24.5581 3.15867 23.8237 3.14017 23.15 3.37781C22.5806 3.57978 22.0953 3.94717 21.7466 4.4403C21.3979 4.93364 21.2134 5.51371 21.2129 6.11763V9.6542C21.2129 9.9581 21.3313 10.2436 21.5462 10.4585C21.7609 10.6735 22.0467 10.7918 22.3506 10.7918C22.6544 10.7918 22.94 10.6735 23.1549 10.4585C23.3698 10.2436 23.4882 9.9581 23.4882 9.6542V9.5273C23.8081 9.9942 24.2585 10.3598 24.7886 10.576C25.4487 10.8453 26.1829 10.8629 26.8564 10.6259C27.4255 10.4242 27.9104 10.0566 28.2593 9.5635C28.6077 9.0701 28.7924 8.4905 28.7928 7.8868V4.34934C28.7924 4.04593 28.6738 3.76058 28.4591 3.54568Z" fill="url(#paint0_linear_6064_91)"/>
</g>
<defs>
<linearGradient id="paint0_linear_6064_91" x1="20.8785" y1="10.7358" x2="28.7494" y2="2.30378" gradientUnits="userSpaceOnUse">
<stop offset="0.05" stop-color="#A0ADFF"/>
<stop offset="1" stop-color="#4C52D8"/>
</linearGradient>
<clipPath id="clip0_6064_91">
<rect width="32" height="32" fill="white"/>
</clipPath>
</defs>
</svg>
