<svg width="32" height="32" viewBox="0 0 32 32" fill="none" xmlns="http://www.w3.org/2000/svg">
<g clip-path="url(#clip0_11862_302623)">
<circle cx="16" cy="16" r="16" fill="white"/>
<rect x="4" y="4" width="24" height="24" rx="12" fill="#2775CA"/>
<path d="M9.00004 13.5499C7.54996 17.4 9.55 21.75 13.45 23.1499C13.6 23.25 13.75 23.4499 13.75 23.5999V24.3C13.75 24.4 13.75 24.45 13.7 24.4999C13.65 24.7 13.45 24.7999 13.25 24.7C10.45 23.8 8.29996 21.6499 7.39996 18.85C5.89996 14.1 8.5 9.04992 13.25 7.54992C13.3 7.5 13.4 7.5 13.45 7.5C13.65 7.54992 13.75 7.69992 13.75 7.89996V8.59992C13.75 8.85 13.65 9 13.45 9.09996C11.4 9.84996 9.75004 11.4499 9.00004 13.5499Z" fill="white"/>
<path d="M18.3 7.74996C18.35 7.54992 18.55 7.44996 18.75 7.54992C21.5 8.44992 23.7 10.6 24.6 13.45C26.1 18.1999 23.5 23.25 18.75 24.75C18.7 24.7999 18.6 24.7999 18.55 24.7999C18.35 24.75 18.25 24.6 18.25 24.4V23.7C18.25 23.4499 18.35 23.2999 18.55 23.2C20.6 22.45 22.25 20.85 23 18.75C24.45 14.8999 22.45 10.5499 18.55 9.15C18.4 9.04992 18.25 8.85 18.25 8.64996V7.95C18.25 7.84992 18.25 7.8 18.3 7.74996Z" fill="white"/>
<path d="M16.15 15.3C18.25 15.55 19.3 16.15 19.3 17.8999C19.3 19.2499 18.3 20.2999 16.8 20.55V21.75C16.75 22 16.6 22.15 16.4 22.15H15.65C15.4 22.0999 15.25 21.9499 15.25 21.75V20.55C13.6 20.2999 12.8 19.3999 12.6 18.15V18.1C12.6 17.8999 12.75 17.7499 12.95 17.7499H13.8C13.95 17.7499 14.1 17.85 14.15 18.0499C14.3 18.7999 14.75 19.35 16.05 19.35C17 19.35 17.7 18.8 17.7 18C17.7 17.2 17.25 16.9 15.85 16.65C13.75 16.3999 12.75 15.75 12.75 14.1C12.75 12.85 13.7 11.85 15.2 11.65V10.5C15.25 10.2499 15.4 10.0999 15.6 10.0999H16.35C16.6 10.15 16.75 10.3 16.75 10.5V11.7C17.9 11.8 18.8 12.6499 19 13.75V13.8C19 13.9999 18.85 14.1499 18.65 14.1499H17.85C17.7 14.1499 17.55 14.05 17.5 13.9C17.25 13.15 16.75 12.85 15.85 12.85C14.85 12.85 14.35 13.2998 14.35 13.9999C14.35 14.7 14.65 15.1 16.15 15.3Z" fill="white"/>
<circle cx="25" cy="9" r="7" fill="white"/>
<circle cx="25" cy="9.00026" r="6.06667" fill="#020518"/>
<path d="M28.2858 9.8859C28.286 10.2027 28.225 10.5117 28.1039 10.8042C27.9826 11.0971 27.8076 11.3588 27.584 11.5826C27.3597 11.8067 27.0978 11.9814 26.8053 12.1025C26.5133 12.2233 26.2049 12.2848 25.889 12.2848H25.8872H25.8868H25.8774C25.3714 12.2848 24.8691 12.1199 24.462 11.82C24.0522 11.5182 23.7444 11.0839 23.5912 10.5826C23.5225 10.3565 23.4878 10.1227 23.4882 9.8868V8.11785C23.4884 7.94931 23.554 7.79103 23.6733 7.67176C23.7925 7.55272 23.9508 7.48718 24.1189 7.48695C24.2872 7.4874 24.4455 7.55339 24.5646 7.67221C24.6834 7.79125 24.7491 7.94954 24.7496 8.11763V9.88613C24.7498 10.1898 24.8684 10.4756 25.0838 10.6902C25.2434 10.8494 25.4447 10.9566 25.6659 11.0001C25.8868 11.044 26.114 11.0215 26.3224 10.9352C26.5306 10.849 26.707 10.7045 26.8325 10.517C26.9582 10.3298 27.0249 10.1117 27.0253 9.8859V6.34956C27.0253 6.26641 27.0414 6.18504 27.0733 6.10813C27.1049 6.03144 27.1509 5.96256 27.2099 5.9037C27.2688 5.84507 27.3375 5.79893 27.4144 5.76705C27.568 5.70373 27.743 5.70351 27.8968 5.76705C27.9737 5.79893 28.0424 5.84507 28.1012 5.9037C28.1601 5.96256 28.206 6.03144 28.2379 6.10813C28.2697 6.18504 28.2858 6.26641 28.2858 6.34956V9.8859ZM23.315 7.31329C23.1001 7.52819 22.9815 7.81399 22.9812 8.11763V11.6542C22.9812 11.8225 22.9157 11.9808 22.7964 12.1C22.5583 12.3386 22.1428 12.3386 21.9045 12.1C21.7854 11.9808 21.7199 11.8225 21.7199 11.6542V8.11785C21.7203 7.54291 21.9274 6.9867 22.3031 6.55153C22.6789 6.11638 23.1988 5.83058 23.7675 5.74631C23.8846 5.72893 24.0021 5.72023 24.1191 5.72023C24.571 5.72023 25.0169 5.84819 25.4026 6.0923C25.5847 6.20756 25.749 6.346 25.8921 6.50294C25.8935 6.5016 25.8944 6.50004 25.8957 6.4987L25.8991 6.51141C26.1343 6.77157 26.3117 7.08189 26.4149 7.42208L26.4247 7.4544C26.4874 7.6702 26.519 7.89335 26.5193 8.11763V9.8859C26.5193 10.011 26.4825 10.132 26.4129 10.2359C26.3434 10.3398 26.2457 10.42 26.1302 10.4682C26.0551 10.4994 25.9757 10.5141 25.8957 10.515V10.5161C25.8926 10.5161 25.8897 10.5152 25.8866 10.5152C25.8464 10.5152 25.8061 10.5126 25.766 10.5045C25.7428 10.5001 25.7203 10.4929 25.698 10.4858V10.4827C25.6828 10.4778 25.6672 10.4753 25.6525 10.4691C25.537 10.4209 25.4394 10.3407 25.3698 10.2368C25.3003 10.1327 25.2635 10.0116 25.2635 9.8868V8.28527H25.263V8.1174C25.2626 7.96648 25.2331 7.81956 25.1754 7.6809C25.1174 7.54202 25.0338 7.41762 24.9271 7.31128C24.8203 7.20517 24.6954 7.12246 24.5559 7.06517C24.4165 7.00788 24.2685 6.97711 24.1191 6.97979C23.8155 6.98001 23.5299 7.09861 23.315 7.31329ZM28.4591 5.54568C28.2441 5.331 27.9588 5.21262 27.6554 5.21217H27.6549C27.3515 5.21306 27.0664 5.33166 26.8519 5.54635C26.6379 5.76103 26.5197 6.04616 26.5193 6.34956V6.4773C26.1996 6.01026 25.7488 5.64466 25.2187 5.42797C24.5581 5.15867 23.8237 5.14017 23.15 5.37781C22.5806 5.57978 22.0953 5.94717 21.7466 6.4403C21.3979 6.93364 21.2134 7.51371 21.2129 8.11763V11.6542C21.2129 11.9581 21.3313 12.2436 21.5462 12.4585C21.7609 12.6735 22.0467 12.7918 22.3506 12.7918C22.6544 12.7918 22.94 12.6735 23.1549 12.4585C23.3698 12.2436 23.4882 11.9581 23.4882 11.6542V11.5273C23.8081 11.9942 24.2585 12.3598 24.7886 12.576C25.4487 12.8453 26.1829 12.8629 26.8564 12.6259C27.4255 12.4242 27.9104 12.0566 28.2593 11.5635C28.6077 11.0701 28.7924 10.4905 28.7928 9.8868V6.34934C28.7924 6.04593 28.6738 5.76058 28.4591 5.54568Z" fill="url(#paint0_linear_11862_302623)"/>
</g>
<defs>
<linearGradient id="paint0_linear_11862_302623" x1="20.8785" y1="12.7358" x2="28.7494" y2="4.30378" gradientUnits="userSpaceOnUse">
<stop offset="0.05" stop-color="#A0ADFF"/>
<stop offset="1" stop-color="#4C52D8"/>
</linearGradient>
<clipPath id="clip0_11862_302623">
<rect width="32" height="32" rx="16" fill="white"/>
</clipPath>
</defs>
</svg>
